<?xml version="1.0" standalone="no"?>
<!DOCTYPE svg PUBLIC "-//W3C//DTD SVG 20010904//EN"
 "http://www.w3.org/TR/2001/REC-SVG-20010904/DTD/svg10.dtd">
<svg version="1.0" xmlns="http://www.w3.org/2000/svg"
 width="300.000000pt" height="300.000000pt" viewBox="0 0 300.000000 300.000000"
 preserveAspectRatio="xMidYMid meet">

<g transform="translate(0.000000,300.000000) scale(0.100000,-0.100000)"
fill="#000000" stroke="none">
<path d="M0 1500 l0 -1500 958 0 958 0 -1 26 c-1 14 -7 29 -14 33 -6 4 -18 54
-25 112 -9 73 -14 90 -15 57 0 -26 -5 -50 -11 -53 -5 -3 -10 -15 -10 -25 0
-11 -9 -24 -20 -30 -17 -9 -20 -8 -20 11 0 32 -22 102 -37 117 -7 7 -13 18
-13 23 0 5 -5 9 -11 9 -6 0 -8 -8 -4 -19 3 -10 -1 -36 -9 -57 -43 -117 -52
-138 -63 -141 -6 -2 -14 5 -18 16 -3 12 -10 21 -13 21 -4 0 -6 33 -4 73 3 59
1 77 -13 90 -14 15 -15 17 -1 17 11 0 16 10 16 33 0 17 3 43 7 56 4 16 2 22
-4 18 -6 -4 -14 -19 -18 -34 -3 -16 -25 -62 -48 -103 l-42 -75 -3 38 c-4 41
-8 44 -40 21 -27 -19 -28 -16 -37 80 -8 78 -18 74 -36 -14 -6 -30 -17 -65 -25
-77 -8 -12 -14 -33 -15 -45 0 -17 -4 -13 -15 16 -15 42 -11 173 7 230 8 27 8
28 -19 23 -25 -5 -29 0 -54 52 -28 55 -38 136 -19 143 5 2 11 12 13 23 3 23
20 45 29 39 3 -2 15 3 25 11 10 8 14 15 7 15 -6 0 -15 -5 -18 -11 -5 -7 -11
-5 -18 5 -7 8 -23 16 -36 18 -24 3 -70 53 -59 63 3 4 20 -8 38 -25 35 -35 53
-35 58 0 3 20 1 22 -25 16 -21 -5 -24 -4 -13 4 13 8 13 10 0 10 -27 0 5 19 37
22 29 2 31 5 26 29 -3 19 1 33 14 46 11 11 23 28 27 39 7 15 10 11 20 -26 19
-69 80 -170 103 -170 5 0 27 -18 48 -41 49 -50 77 -65 168 -89 90 -24 121 -25
113 -5 -3 8 -1 15 4 15 6 0 10 -6 10 -12 0 -8 3 -9 8 -3 4 6 23 12 42 13 19 2
38 9 41 14 4 6 9 5 13 -3 5 -11 7 -11 12 -1 3 6 10 10 15 6 5 -3 9 0 9 6 0 7
7 10 15 6 9 -3 15 0 15 10 0 8 5 12 10 9 6 -3 10 -1 10 4 0 6 5 11 11 11 7 0
20 10 30 22 11 11 19 17 19 13 0 -4 8 2 19 13 10 12 21 19 25 15 3 -3 6 2 6
12 0 10 3 15 6 12 4 -3 20 8 36 25 16 17 30 29 33 27 2 -2 -3 -42 -12 -89 -14
-81 -19 -149 -22 -287 0 -35 -5 -63 -11 -63 -5 0 -21 17 -36 38 -28 40 -28 35
7 -47 18 -43 20 -57 11 -72 -7 -10 -12 -28 -12 -38 0 -11 -4 -23 -10 -26 -5
-3 -10 -14 -10 -24 0 -22 -50 -39 -107 -36 -47 2 -51 -3 -64 -75 -5 -25 -11
-60 -15 -77 l-6 -33 536 0 536 0 0 761 c0 605 -3 759 -12 753 -10 -6 -10 -4 0
7 9 10 12 173 12 746 l0 733 -1500 0 -1500 0 0 -1500z m2629 1256 c-7 -7 -141
-27 -146 -22 -3 2 15 9 39 14 45 10 114 15 107 8z m-1728 -22 c10 -13 10 -24
0 -62 -8 -26 -17 -63 -22 -82 -4 -19 -17 -66 -29 -105 -44 -147 -53 -193 -54
-274 -1 -54 -5 -86 -13 -88 -16 -6 -23 9 -24 61 -2 35 -6 46 -18 46 -46 0
-121 93 -121 149 0 43 33 101 58 101 9 0 28 -7 40 -16 20 -14 23 -14 28 3 4
10 14 36 24 58 51 113 60 135 60 145 0 6 7 26 14 45 16 38 36 44 57 19z m474
-93 c3 -5 2 -12 -3 -15 -4 -3 -9 -26 -11 -53 -3 -72 -11 -65 -11 10 0 61 9 82
25 58z m232 -43 c-3 -8 -6 -5 -6 6 -1 11 2 17 5 13 3 -3 4 -12 1 -19z m1196
-17 c2 -10 1 -25 -4 -32 -6 -10 -9 -4 -9 19 0 36 5 42 13 13z m103 -29 c-10
-2 -22 0 -28 6 -6 6 0 7 19 4 21 -5 23 -7 9 -10z m-1426 -17 c0 -15 -6 -25
-14 -25 -11 0 -12 5 -3 25 15 31 17 31 17 0z m87 -7 c-3 -7 -5 -2 -5 12 0 14
2 19 5 13 2 -7 2 -19 0 -25z m-258 6 c10 -9 -45 -3 -59 6 -11 7 -5 8 20 4 19
-4 37 -8 39 -10z m527 -20 c29 -20 147 -46 169 -38 11 4 15 -1 16 -17 1 -22 2
-20 15 19 2 7 8 10 14 7 7 -4 7 -12 0 -24 -7 -15 -4 -24 18 -42 33 -29 82
-103 82 -124 0 -9 11 -26 24 -38 13 -12 26 -31 29 -42 3 -15 5 -13 6 8 0 16 5
26 11 22 12 -7 1 -138 -13 -147 -6 -3 1 -8 14 -10 13 -2 25 -11 27 -21 3 -16
1 -17 -18 -7 -12 6 -29 13 -38 15 -9 2 -37 8 -62 14 -65 15 -94 12 -35 -4 62
-16 85 -44 85 -101 0 -24 -4 -44 -9 -44 -5 0 -7 -18 -4 -39 10 -75 1 -87 -72
-101 -93 -18 -153 -2 -200 53 -19 22 -35 46 -35 53 0 19 42 25 60 9 21 -19 41
-19 65 -1 10 7 26 11 36 9 38 -10 26 17 -16 32 -49 19 -105 14 -125 -10 -16
-19 -30 -19 -30 0 0 8 5 15 11 15 6 0 22 14 36 30 14 18 34 30 48 30 13 0 26
4 29 9 3 4 20 11 37 15 18 3 30 8 28 11 -3 2 -45 -4 -94 -14 -63 -13 -92 -15
-97 -8 -10 16 -1 25 33 32 57 13 20 17 -46 6 -36 -7 -71 -8 -78 -4 -6 4 -39 8
-72 10 -33 2 -100 9 -150 15 l-90 13 -5 70 c-5 65 -7 70 -27 69 -33 -1 -32 4
27 73 5 7 10 15 10 19 0 21 37 84 53 89 9 4 17 14 17 23 0 13 2 14 9 4 6 -11
15 -10 47 2 21 8 71 20 111 26 43 7 81 19 94 31 27 23 24 23 55 3z m-1421 -34
c-3 -5 -10 -10 -16 -10 -5 0 -9 5 -9 10 0 6 7 10 16 10 8 0 12 -4 9 -10z
m2509 -75 c5 -22 4 -26 -4 -15 -5 8 -10 24 -10 34 0 26 6 18 14 -19z m-2339 9
c12 -13 15 -32 13 -88 -3 -68 -4 -71 -28 -71 -20 0 -27 8 -38 39 -24 74 -26
109 -6 123 24 17 39 16 59 -3z m-120 -27 c14 -19 29 -54 34 -78 4 -24 10 -50
12 -58 2 -7 -2 -16 -8 -18 -8 -3 -13 3 -13 14 0 11 -20 41 -45 66 -27 28 -45
57 -45 71 0 47 29 49 65 3z m1950 -82 c8 -55 18 -111 21 -125 4 -17 2 -22 -5
-15 -10 10 -42 199 -40 239 1 32 6 10 24 -99z m-1280 75 l20 -25 -22 19 c-13
11 -23 24 -23 29 0 6 1 8 3 6 1 -2 11 -15 22 -29z m1017 -7 c15 -19 25 -40 21
-45 -3 -6 -14 4 -25 21 -11 17 -24 31 -29 31 -5 0 -9 7 -9 15 0 24 13 17 42
-22z m-958 -32 c4 -5 -3 -7 -14 -4 -23 6 -26 13 -6 13 8 0 17 -4 20 -9z m126
-25 c-11 -11 -57 -10 -90 2 -20 8 -12 9 37 8 37 0 58 -5 53 -10z m-801 -238
c57 -64 53 -93 -12 -81 -38 7 -55 32 -63 91 -6 50 -6 52 14 45 11 -5 39 -29
61 -55z m1146 -14 c23 -9 10 -20 -39 -33 -24 -6 -50 -13 -59 -17 -11 -4 -21 4
-31 25 -9 16 -16 33 -16 37 0 7 120 -3 145 -12z m1043 -19 c-3 -3 -9 2 -12 12
-6 14 -5 15 5 6 7 -7 10 -15 7 -18z m135 -2 c-7 -2 -21 -2 -30 0 -10 3 -4 5
12 5 17 0 24 -2 18 -5z m44 -9 c-3 -3 -12 -4 -19 -1 -8 3 -5 6 6 6 11 1 17 -2
13 -5z m-1291 -33 c-4 -5 0 -12 6 -14 7 -3 -5 -6 -27 -6 -37 0 -39 1 -21 14
22 16 50 20 42 6z m225 -97 c40 -82 76 -107 181 -128 89 -18 110 -20 89 -7 -9
6 2 14 38 26 28 9 51 21 51 26 0 5 4 9 9 9 6 0 7 -16 4 -35 -4 -24 -2 -35 6
-35 7 0 11 10 9 25 -2 13 0 24 5 25 34 2 37 -1 37 -40 0 -31 4 -40 18 -41 15
-1 15 -2 1 -6 -10 -2 -20 -19 -23 -38 -8 -43 -30 -60 -76 -59 -36 1 -39 -1
-54 -40 -9 -23 -24 -46 -34 -51 -10 -6 -32 -17 -48 -25 -16 -8 -31 -17 -34
-20 -10 -10 -66 -41 -118 -67 -44 -21 -62 -24 -100 -18 -85 12 -120 25 -162
60 -23 19 -48 35 -55 35 -20 0 -85 77 -87 103 0 12 0 32 1 45 1 12 -5 32 -14
44 -8 13 -15 28 -15 34 0 14 41 30 98 38 75 11 119 47 159 132 29 61 39 74 58
74 19 0 30 -13 56 -66z m-335 7 c5 -6 41 -6 92 0 46 6 86 8 89 5 3 -3 3 -16
-1 -30 -16 -64 -121 -109 -203 -87 -37 10 -43 16 -49 45 -9 51 2 76 35 76 15
0 31 -4 37 -9z m-1040 -22 c3 -5 20 -9 37 -9 l33 0 2 -77 c1 -43 3 -89 5 -103
1 -15 -16 -55 -40 -98 -24 -40 -43 -83 -43 -95 0 -13 -4 -27 -9 -33 -6 -5 -14
-27 -20 -49 -5 -22 -17 -60 -26 -84 -9 -24 -17 -66 -19 -93 -2 -42 -8 -54 -44
-89 -23 -22 -42 -48 -42 -59 0 -21 -25 -28 -115 -32 -47 -3 -50 -2 -67 32 -23
47 -22 94 3 187 26 99 39 133 51 133 5 0 8 6 5 13 -5 15 29 114 46 133 26 29
33 40 46 74 8 19 18 39 23 45 4 5 8 17 8 26 0 9 7 22 15 29 8 7 13 16 10 20
-3 5 -1 11 5 15 6 3 17 23 26 43 27 66 88 105 110 71z m2239 -29 c-9 -41 -17
-33 -9 9 4 17 9 30 11 27 3 -2 2 -19 -2 -36z m-425 10 c0 -5 -4 -10 -10 -10
-5 0 -10 5 -10 10 0 6 5 10 10 10 6 0 10 -4 10 -10z m96 -53 c-3 -13 -12 -24
-19 -24 -11 0 -11 5 1 29 16 33 27 30 18 -5z m319 -27 c3 -6 -1 -7 -9 -4 -18
7 -21 14 -7 14 6 0 13 -4 16 -10z m-285 -14 c0 -2 -8 -10 -17 -17 -16 -13 -17
-12 -4 4 13 16 21 21 21 13z m-10 -131 c0 -8 -4 -15 -10 -15 -5 0 -7 7 -4 15
4 8 8 15 10 15 2 0 4 -7 4 -15z m231 -63 c-7 -2 -18 1 -23 6 -8 8 -4 9 13 5
13 -4 18 -8 10 -11z m-518 -141 c-9 -121 -2 -141 65 -193 32 -25 62 -58 68
-75 11 -30 10 -32 -105 -150 -134 -138 -209 -184 -312 -191 -75 -6 -95 1 -143
43 l-38 34 28 -2 c28 -2 29 0 32 43 4 78 10 90 40 90 19 0 33 -9 47 -30 l20
-30 33 36 c38 42 67 102 77 159 6 38 27 86 46 109 25 30 61 92 80 139 17 40
51 91 66 96 0 1 -1 -34 -4 -78z m512 -11 c3 -6 -1 -7 -9 -4 -18 7 -21 14 -7
14 6 0 13 -4 16 -10z m-1289 -237 c4 -29 3 -53 -5 -65 -6 -10 -13 -43 -16 -73
-3 -30 -11 -68 -20 -85 -8 -16 -15 -34 -15 -40 0 -31 -36 -83 -69 -100 -30
-16 -32 -19 -13 -20 18 0 22 -6 24 -35 0 -19 1 -41 2 -47 1 -7 -10 -13 -24
-13 -20 0 -25 5 -27 25 -4 75 -12 128 -24 155 l-12 30 -7 -40 c-5 -22 -5 -44
-2 -49 3 -5 0 -6 -6 -2 -7 4 -12 11 -12 17 0 5 -7 26 -17 47 l-16 39 -61 -30
c-102 -50 -223 -68 -436 -67 -263 1 -324 11 -351 61 -8 16 -7 25 7 40 9 10 26
19 38 19 11 0 44 23 74 53 l53 52 207 1 c204 1 294 13 356 46 10 6 37 10 59
10 31 -1 46 5 62 24 18 21 30 24 94 26 66 2 74 5 82 25 5 13 13 23 19 23 6 0
9 -4 6 -8 -2 -4 -1 -14 4 -22 7 -11 11 -7 16 18 9 46 22 40 30 -15z m1044 -3
c0 -5 -4 -10 -10 -10 -5 0 -10 5 -10 10 0 6 5 10 10 10 6 0 10 -4 10 -10z
m-80 -20 c0 -7 13 -9 33 -5 28 6 34 3 50 -24 19 -33 15 -94 -9 -118 -12 -13
-15 -12 -20 1 -4 10 -18 16 -40 16 -26 0 -34 4 -34 18 0 14 -2 15 -10 2 -9
-13 -11 -13 -20 0 -8 13 -10 12 -10 -4 0 -11 7 -28 17 -38 18 -21 14 -31 -10
-22 -37 14 -32 78 7 88 26 6 41 45 31 77 -4 11 -2 19 4 19 6 0 11 -5 11 -10z
m410 -54 c0 -3 -4 -8 -10 -11 -5 -3 -10 -1 -10 4 0 6 5 11 10 11 6 0 10 -2 10
-4z m-220 -53 c1 -21 77 -63 114 -63 13 0 45 -9 70 -19 47 -21 70 -52 96 -136
7 -22 24 -52 37 -66 24 -26 24 -28 6 -38 -13 -7 -14 -10 -4 -11 28 0 145 -143
149 -181 3 -22 -2 -27 -26 -32 -16 -3 -36 -12 -44 -20 -7 -8 -20 -12 -28 -11
-8 2 -34 8 -58 13 -54 11 -189 78 -196 97 -8 21 41 69 99 98 28 14 44 26 37
26 -29 0 -108 -47 -162 -97 -32 -29 -61 -53 -66 -53 -4 0 -20 -15 -36 -33 -28
-32 -28 -32 -18 -4 11 31 6 34 -18 10 -16 -15 -17 -13 -29 25 -6 23 -19 90
-28 149 -8 58 -21 113 -28 121 -14 17 -13 135 1 140 15 5 56 42 47 42 -5 0 7
14 25 30 38 34 60 38 60 13z m-182 -132 c19 -12 11 -65 -10 -69 -15 -3 -18 4
-18 37 0 42 5 47 28 32z m-1118 -276 c-7 -8 -14 -15 -15 -15 -2 0 -5 7 -9 15
-4 10 1 15 16 15 17 0 18 -2 8 -15z"/>
<path d="M1665 1766 c-16 -11 -17 -17 -8 -27 17 -17 85 -18 106 0 14 11 22 12
43 2 22 -10 25 -9 22 6 -2 13 -14 19 -43 20 -22 1 -53 5 -70 8 -19 4 -37 1
-50 -9z"/>
<path d="M1543 1684 c-15 -7 10 -56 34 -66 29 -11 345 -10 338 2 -3 6 -32 10
-64 10 -62 0 -277 26 -292 36 -5 3 -7 10 -4 15 7 10 6 10 -12 3z"/>
<path d="M1950 1671 c0 -5 7 -14 15 -21 16 -14 18 -10 9 14 -6 17 -24 22 -24
7z"/>
<path d="M1642 1564 c6 -31 115 -47 137 -20 9 11 2 14 -36 20 -27 3 -61 9 -76
12 -24 6 -28 4 -25 -12z"/>
<path d="M2287 1093 c-14 -13 -6 -23 18 -23 28 0 34 15 9 24 -19 7 -19 7 -27
-1z"/>
</g>
</svg>
